<svg width="24" height="24" viewBox="0 0 24 24" fill="none" xmlns="http://www.w3.org/2000/svg">
<path d="M22.3901 5.97651C21.3171 4.13794 19.8615 2.68234 18.0231 1.60938C16.1844 0.536369 14.1771 0 11.9998 0C9.82275 0 7.81481 0.536533 5.97651 1.60938C4.13794 2.68228 2.68245 4.13794 1.60938 5.97651C0.536478 7.81503 0 9.8227 0 11.9995C0 14.6143 0.762879 16.9656 2.28902 19.054C3.815 21.1425 5.78634 22.5877 8.20287 23.3898C8.48416 23.442 8.69239 23.4052 8.82778 23.2805C8.96323 23.1556 9.03087 22.9992 9.03087 22.812C9.03087 22.7807 9.02819 22.4996 9.02299 21.9682C9.01763 21.4369 9.01511 20.9734 9.01511 20.5779L8.65572 20.6401C8.42659 20.682 8.13753 20.6998 7.78854 20.6948C7.43971 20.6899 7.07759 20.6533 6.70267 20.5854C6.32757 20.518 5.9787 20.3618 5.65576 20.117C5.33299 19.8722 5.10385 19.5518 4.9684 19.1562L4.81216 18.7967C4.70802 18.5573 4.54406 18.2914 4.32006 17.9999C4.09607 17.7082 3.86956 17.5104 3.64042 17.4062L3.53103 17.3279C3.45813 17.2759 3.39049 17.2131 3.32794 17.1403C3.26544 17.0674 3.21865 16.9945 3.1874 16.9215C3.1561 16.8485 3.18204 16.7885 3.2655 16.7415C3.34895 16.6945 3.49978 16.6717 3.71863 16.6717L4.031 16.7184C4.23934 16.7601 4.49705 16.8849 4.80444 17.0933C5.11167 17.3016 5.36423 17.5724 5.56218 17.9056C5.80188 18.3328 6.09067 18.6583 6.42937 18.8823C6.76779 19.1062 7.10901 19.2181 7.45269 19.2181C7.79636 19.2181 8.0932 19.192 8.34329 19.1402C8.59312 19.0881 8.82751 19.0098 9.04636 18.9057C9.1401 18.2075 9.39535 17.6711 9.81186 17.2962C9.2182 17.2338 8.68446 17.1398 8.21037 17.0149C7.73655 16.8898 7.24692 16.6868 6.7418 16.4052C6.2364 16.1241 5.81715 15.775 5.48392 15.3586C5.15064 14.9419 4.87712 14.3948 4.66374 13.7179C4.45026 13.0408 4.34349 12.2596 4.34349 11.3742C4.34349 10.1136 4.75503 9.04089 5.57794 8.15542C5.19245 7.20768 5.22884 6.14523 5.68723 4.96818C5.98931 4.87433 6.4373 4.94476 7.03097 5.17904C7.62474 5.41343 8.05949 5.61422 8.33563 5.7807C8.61178 5.94712 8.83304 6.08815 8.99973 6.20253C9.96865 5.9318 10.9686 5.79641 11.9997 5.79641C13.0308 5.79641 14.031 5.9318 14.9999 6.20253L15.5937 5.82771C15.9997 5.57761 16.4791 5.34842 17.0309 5.14008C17.5829 4.93185 18.0051 4.87449 18.2969 4.96835C18.7655 6.14545 18.8072 7.20784 18.4216 8.15559C19.2445 9.04105 19.6562 10.1141 19.6562 11.3744C19.6562 12.2598 19.549 13.0434 19.3359 13.7258C19.1224 14.4082 18.8466 14.9547 18.5081 15.3664C18.1693 15.778 17.7474 16.1243 17.2423 16.4054C16.737 16.6867 16.2472 16.8897 15.7734 17.0148C15.2994 17.1399 14.7657 17.234 14.172 17.2965C14.7134 17.765 14.9842 18.5046 14.9842 19.515V22.8115C14.9842 22.9988 15.0494 23.1551 15.1797 23.2801C15.3099 23.4048 15.5155 23.4415 15.7968 23.3893C18.2137 22.5874 20.185 21.1421 21.7109 19.0535C23.2367 16.9652 23.9998 14.6138 23.9998 11.999C23.9993 9.82254 23.4625 7.81503 22.3901 5.97651Z" fill="#DA0D46"/>
</svg>
