<svg width="294" height="47" viewBox="0 0 294 47" fill="none" xmlns="http://www.w3.org/2000/svg">
<path d="M49.196 31.132C47.6707 31.132 46.292 30.7947 45.06 30.12C43.8427 29.4453 42.882 28.514 42.178 27.326C41.4887 26.1233 41.144 24.7813 41.144 23.3C41.144 21.8187 41.4887 20.484 42.178 19.296C42.882 18.0933 43.85 17.1547 45.082 16.48C46.314 15.8053 47.6927 15.468 49.218 15.468C50.362 15.468 51.418 15.6587 52.386 16.04C53.354 16.4213 54.1753 16.9787 54.85 17.712L53.816 18.746C52.6133 17.5287 51.0953 16.92 49.262 16.92C48.0447 16.92 46.9373 17.1987 45.94 17.756C44.9427 18.3133 44.158 19.076 43.586 20.044C43.0287 21.012 42.75 22.0973 42.75 23.3C42.75 24.5027 43.0287 25.588 43.586 26.556C44.158 27.524 44.9427 28.2867 45.94 28.844C46.9373 29.4013 48.0447 29.68 49.262 29.68C51.11 29.68 52.628 29.064 53.816 27.832L54.85 28.866C54.1753 29.5993 53.3467 30.164 52.364 30.56C51.396 30.9413 50.34 31.132 49.196 31.132ZM68.4185 26.886H59.8385L57.9905 31H56.2965L63.3365 15.6H64.9425L71.9825 31H70.2665L68.4185 26.886ZM67.8245 25.566L64.1285 17.294L60.4325 25.566H67.8245ZM85.486 31L81.966 26.05C81.57 26.094 81.1594 26.116 80.734 26.116H76.598V31H74.97V15.6H80.734C82.6994 15.6 84.2394 16.0693 85.354 17.008C86.4687 17.9467 87.026 19.2373 87.026 20.88C87.026 22.0827 86.718 23.102 86.102 23.938C85.5007 24.7593 84.6354 25.3533 83.506 25.72L87.268 31H85.486ZM80.69 24.73C82.2154 24.73 83.3814 24.3927 84.188 23.718C84.9947 23.0433 85.398 22.0973 85.398 20.88C85.398 19.6333 84.9947 18.68 84.188 18.02C83.3814 17.3453 82.2154 17.008 80.69 17.008H76.598V24.73H80.69ZM102.198 29.592V31H91.3085V15.6H101.868V17.008H92.9365V22.486H100.9V23.872H92.9365V29.592H102.198ZM117.355 29.592V31H106.465V15.6H117.025V17.008H108.093V22.486H116.057V23.872H108.093V29.592H117.355ZM132.138 31L128.618 26.05C128.222 26.094 127.811 26.116 127.386 26.116H123.25V31H121.622V15.6H127.386C129.351 15.6 130.891 16.0693 132.006 17.008C133.121 17.9467 133.678 19.2373 133.678 20.88C133.678 22.0827 133.37 23.102 132.754 23.938C132.153 24.7593 131.287 25.3533 130.158 25.72L133.92 31H132.138ZM127.342 24.73C128.867 24.73 130.033 24.3927 130.84 23.718C131.647 23.0433 132.05 22.0973 132.05 20.88C132.05 19.6333 131.647 18.68 130.84 18.02C130.033 17.3453 128.867 17.008 127.342 17.008H123.25V24.73H127.342ZM154.674 31L151.154 26.05C150.758 26.094 150.348 26.116 149.922 26.116H145.786V31H144.158V15.6H149.922C151.888 15.6 153.428 16.0693 154.542 17.008C155.657 17.9467 156.214 19.2373 156.214 20.88C156.214 22.0827 155.906 23.102 155.29 23.938C154.689 24.7593 153.824 25.3533 152.694 25.72L156.456 31H154.674ZM149.878 24.73C151.404 24.73 152.57 24.3927 153.376 23.718C154.183 23.0433 154.586 22.0973 154.586 20.88C154.586 19.6333 154.183 18.68 153.376 18.02C152.57 17.3453 151.404 17.008 149.878 17.008H145.786V24.73H149.878ZM171.387 29.592V31H160.497V15.6H171.057V17.008H162.125V22.486H170.089V23.872H162.125V29.592H171.387ZM178.646 17.008H173.234V15.6H185.686V17.008H180.274V31H178.646V17.008ZM194.93 31.132C192.936 31.132 191.381 30.56 190.266 29.416C189.152 28.272 188.594 26.6073 188.594 24.422V15.6H190.222V24.356C190.222 26.1453 190.626 27.48 191.432 28.36C192.239 29.24 193.405 29.68 194.93 29.68C196.47 29.68 197.644 29.24 198.45 28.36C199.257 27.48 199.66 26.1453 199.66 24.356V15.6H201.244V24.422C201.244 26.6073 200.687 28.272 199.572 29.416C198.472 30.56 196.925 31.132 194.93 31.132ZM217.106 31L213.586 26.05C213.19 26.094 212.78 26.116 212.354 26.116H208.218V31H206.59V15.6H212.354C214.32 15.6 215.86 16.0693 216.974 17.008C218.089 17.9467 218.646 19.2373 218.646 20.88C218.646 22.0827 218.338 23.102 217.722 23.938C217.121 24.7593 216.256 25.3533 215.126 25.72L218.888 31H217.106ZM212.31 24.73C213.836 24.73 215.002 24.3927 215.808 23.718C216.615 23.0433 217.018 22.0973 217.018 20.88C217.018 19.6333 216.615 18.68 215.808 18.02C215.002 17.3453 213.836 17.008 212.31 17.008H208.218V24.73H212.31ZM235.799 15.6V31H234.457L224.557 18.504V31H222.929V15.6H224.271L234.193 28.096V15.6H235.799ZM245.511 31.132C244.367 31.132 243.267 30.9487 242.211 30.582C241.17 30.2153 240.363 29.7313 239.791 29.13L240.429 27.876C240.986 28.4333 241.727 28.888 242.651 29.24C243.575 29.5773 244.528 29.746 245.511 29.746C246.89 29.746 247.924 29.4967 248.613 28.998C249.302 28.4847 249.647 27.8247 249.647 27.018C249.647 26.402 249.456 25.9107 249.075 25.544C248.708 25.1773 248.254 24.8987 247.711 24.708C247.168 24.5027 246.413 24.2827 245.445 24.048C244.286 23.7547 243.362 23.476 242.673 23.212C241.984 22.9333 241.39 22.5153 240.891 21.958C240.407 21.4007 240.165 20.6453 240.165 19.692C240.165 18.9147 240.37 18.2107 240.781 17.58C241.192 16.9347 241.822 16.4213 242.673 16.04C243.524 15.6587 244.58 15.468 245.841 15.468C246.721 15.468 247.579 15.5927 248.415 15.842C249.266 16.0767 249.999 16.4067 250.615 16.832L250.065 18.13C249.42 17.7047 248.73 17.3893 247.997 17.184C247.264 16.964 246.545 16.854 245.841 16.854C244.492 16.854 243.472 17.118 242.783 17.646C242.108 18.1593 241.771 18.8267 241.771 19.648C241.771 20.264 241.954 20.7627 242.321 21.144C242.702 21.5107 243.172 21.7967 243.729 22.002C244.301 22.1927 245.064 22.4053 246.017 22.64C247.146 22.9187 248.056 23.1973 248.745 23.476C249.449 23.74 250.043 24.1507 250.527 24.708C251.011 25.2507 251.253 25.9913 251.253 26.93C251.253 27.7073 251.04 28.4187 250.615 29.064C250.204 29.6947 249.566 30.2007 248.701 30.582C247.836 30.9487 246.772 31.132 245.511 31.132ZM268.11 15.6V31H266.504V23.894H256.868V31H255.24V15.6H256.868V22.464H266.504V15.6H268.11ZM273.577 15.6H275.205V31H273.577V15.6ZM286.419 15.6C288.385 15.6 289.925 16.0693 291.039 17.008C292.154 17.9467 292.711 19.2373 292.711 20.88C292.711 22.5227 292.154 23.8133 291.039 24.752C289.925 25.676 288.385 26.138 286.419 26.138H282.283V31H280.655V15.6H286.419ZM286.375 24.708C287.901 24.708 289.067 24.378 289.873 23.718C290.68 23.0433 291.083 22.0973 291.083 20.88C291.083 19.6333 290.68 18.68 289.873 18.02C289.067 17.3453 287.901 17.008 286.375 17.008H282.283V24.708H286.375Z" fill="#DA0D46"/>
<path d="M4 16V0L35.5 23.5L4 46.5V30L15 23.5L4 16Z" fill="#DA0D46"/>
<path d="M1 29V17L11 23.5L1 29Z" fill="#DA0D46"/>
</svg>
