<svg width="48" height="17" viewBox="0 0 48 17" fill="none" xmlns="http://www.w3.org/2000/svg">
<path d="M28.2663 8.75682C28.2024 8.84818 28.1544 8.91669 28.1144 8.9776C27.6825 9.56381 27.2026 10.0967 26.5467 10.4698C25.6669 10.9646 24.7151 11.1702 23.7153 10.9646C23.2034 10.8581 22.7315 10.584 22.2515 10.3708C22.1396 10.3175 22.0836 10.3175 21.9796 10.3784C21.5637 10.6068 21.1638 10.8657 20.7319 11.0484C19.956 11.3681 19.1402 11.5432 18.3003 11.3377C17.7724 11.2083 17.3165 10.919 16.9006 10.584C16.6047 10.3404 16.5887 10.3404 16.2927 10.5764C15.7568 10.9951 15.141 11.2615 14.5011 11.4899C13.7013 11.764 12.8774 11.9391 12.0296 12.0153C10.9978 12.1142 10.046 11.9467 9.35013 11.1397C8.79024 10.4926 8.63827 9.74653 8.9822 8.96999C9.35813 8.11731 9.79004 7.28748 10.198 6.45003C10.4059 6.01608 10.6219 5.57451 10.8298 5.13295C10.8698 5.0492 10.8858 4.95785 10.8858 4.86649C10.8938 4.699 10.9258 4.5239 10.7259 4.42493C10.5259 4.32595 10.2859 4.34118 10.134 4.5239C9.95001 4.75229 9.78204 4.99591 9.64607 5.24715C9.18216 6.09221 8.74225 6.93727 8.28634 7.78995C7.95041 8.42945 7.61448 9.06134 7.27854 9.70085C6.95861 10.3023 6.35073 10.5307 5.69486 10.2947C5.47091 10.2185 5.33493 10.0587 5.29494 9.82266C5.23895 9.48768 5.35893 9.18316 5.4789 8.88624C5.75085 8.23151 6.03079 7.57678 6.30274 6.91443C6.44671 6.56423 6.59868 6.20641 6.73465 5.8562C6.83063 5.60497 6.86263 5.34612 6.75065 5.1025C6.66267 4.91217 6.4947 4.77513 6.25475 4.79797C5.9908 4.82081 5.79084 4.95023 5.68686 5.17863C5.34293 5.99324 5.007 6.81546 4.66307 7.63007C4.25515 8.61217 3.85523 9.59427 3.43131 10.5611C3.27135 10.919 3.03939 11.2463 2.63947 11.3986C2.43951 11.4747 2.20756 11.528 1.9916 11.528C1.31174 11.5356 0.727854 11.3225 0.319936 10.7743C0 10.3404 -0.079984 9.85311 0.079984 9.33542C0.223955 8.85579 0.367926 8.38377 0.511898 7.91176C0.655869 7.46258 0.807838 7.0134 0.951809 6.56423C1.08778 6.1455 1.21576 5.72678 1.36773 5.31567C1.66367 4.50106 1.89562 3.66361 2.35953 2.91752C2.67946 2.40744 3.19136 2.13336 3.78324 1.95826C4.39912 1.78316 4.92701 2.00394 5.44691 2.25517C5.64687 2.34653 5.84683 2.45312 6.04679 2.52925C6.33473 2.64345 6.59068 2.57493 6.82264 2.39221C7.0146 2.24756 7.19856 2.10291 7.37452 1.93542C7.80644 1.53192 8.75025 1.45579 9.20616 1.92781C9.31014 2.03439 9.43811 2.12575 9.55009 2.22472C9.79004 2.43028 9.88602 2.4455 10.166 2.30085C10.8298 1.94303 11.5097 1.99633 12.1816 2.22472C12.5735 2.35415 12.8054 2.6739 12.9574 3.04694C13.1734 3.59509 13.0854 4.12801 12.8614 4.64571C12.4535 5.59735 12.0136 6.53377 11.6217 7.49303C11.3897 8.05641 11.1898 8.64262 11.0218 9.22883C10.9498 9.46484 10.9498 9.75414 11.0138 9.99015C11.1098 10.3556 11.4617 10.4774 11.8136 10.5155C12.3495 10.584 12.8854 10.485 13.3973 10.348C13.8372 10.2338 14.2771 10.0891 14.7011 9.94447C14.909 9.87595 15.101 9.76175 15.3009 9.6704C15.4689 9.58665 15.4849 9.47245 15.3969 9.32019C15.213 9.01566 15.021 8.71114 14.861 8.39139C14.5171 7.72143 14.2372 7.02863 14.3171 6.2597C14.3811 5.58974 14.6371 5.00353 15.2849 4.65332C16.2448 4.13563 17.0206 4.27266 17.7325 5.05682C18.3403 5.72678 18.5403 6.54139 18.2843 7.40929C18.1404 7.89653 17.9244 8.36093 17.7245 8.83295C17.6685 8.96237 17.7005 9.04612 17.7884 9.12225C18.1964 9.48007 18.6523 9.76176 19.1642 9.9597C19.3561 10.0358 19.5641 10.0891 19.764 10.1272C20.204 10.2109 20.6119 10.112 20.9798 9.87595C21.1558 9.76176 21.1558 9.65517 21.0358 9.50291C20.196 8.40661 19.86 7.19612 20.116 5.8562C20.212 5.35373 20.4519 4.88172 21.0198 4.73707C21.3717 4.64571 21.7636 4.65332 22.1236 4.699C22.7155 4.76752 23.2513 4.99591 23.6113 5.47554C24.0432 6.05414 24.1552 6.69365 23.9712 7.38645C23.8352 7.8813 23.5633 8.30764 23.2593 8.71875C23.1394 8.87863 23.1314 9.03089 23.2993 9.14509C23.5473 9.31258 23.8032 9.49529 24.0912 9.59426C24.7071 9.80743 25.3469 9.78459 25.9708 9.59426C26.6507 9.38871 27.1306 8.95476 27.4025 8.32287C27.7305 7.56155 27.7305 6.76217 27.7145 5.96279C27.6985 5.33851 27.6745 4.71423 27.6585 4.08233C27.6505 3.86155 27.6105 3.84633 27.3865 3.892C26.7946 4.0062 26.2028 4.10517 25.6109 4.21176C25.4269 4.24221 25.235 4.26505 25.051 4.2955C24.6431 4.36402 24.3071 4.20414 24.2831 3.75497C24.2591 3.29818 24.1872 2.84139 24.1392 2.39221C24.1392 2.36937 24.1312 2.33892 24.1312 2.31608C24.1072 1.78316 24.2432 1.48624 24.915 1.50908C25.6109 1.53192 26.3067 1.55476 27.0106 1.59283C27.3545 1.60805 27.4745 1.52431 27.4985 1.20456C27.5145 0.953322 27.5225 0.702088 27.5385 0.450853C27.5625 0.070195 27.6505 -0.0135505 28.0584 0.00167581C28.2983 0.00928898 28.5383 0.047355 28.7782 0.100647C29.1062 0.169166 29.2821 0.389948 29.3061 0.709701C29.3221 0.968548 29.3141 1.2274 29.3141 1.48624C29.3141 1.66896 29.3701 1.76793 29.5861 1.79077C30.21 1.85168 30.8258 1.93542 31.4417 2.00394C31.7376 2.03439 31.8976 2.14859 31.9376 2.35415C32.0096 2.71196 31.9216 2.95558 31.6417 3.05456C31.2417 3.19159 30.8338 3.29818 30.4179 3.38953C30.13 3.45805 29.834 3.48851 29.5381 3.53418C29.3381 3.56464 29.2342 3.66361 29.2342 3.87678C29.2422 4.91217 29.2182 5.95517 29.2501 6.99056C29.2661 7.53871 29.3541 8.07925 29.5941 8.58933C29.794 9.00044 30.13 9.16031 30.5939 9.0918C31.2817 8.98521 31.9056 8.7492 32.4575 8.33809C32.7614 8.1097 32.9614 7.82801 32.9774 7.43974C33.0014 6.73172 33.0414 6.02369 33.0894 5.31567C33.1054 5.11011 33.1294 4.89694 33.2014 4.70661C33.2413 4.60003 33.3853 4.46299 33.4893 4.45538C34.0492 4.44015 34.6171 4.43254 35.169 4.47822C35.5209 4.50867 35.7608 4.82081 35.7449 5.17102C35.7209 5.66587 35.6489 6.16073 35.6009 6.65558C35.5369 7.26464 35.4809 7.87369 35.4169 8.48274C35.3449 9.09941 35.8648 9.40394 36.3767 9.41155C36.8086 9.41916 37.0566 9.2669 37.2406 8.83295C37.4325 8.38377 37.5445 7.89653 37.6245 7.4169C37.7365 6.73933 37.7924 6.04653 37.8804 5.36134C37.9124 5.07966 38.0964 4.86649 38.3283 4.82081C38.5923 4.76752 38.9362 4.86649 39.0242 5.09488C39.0962 5.28521 39.0802 5.52122 39.0562 5.73439C38.9602 6.51855 38.8322 7.29509 38.7523 8.07163C38.7043 8.55126 38.9842 8.89386 39.4801 9.03851C39.7281 9.10702 39.976 9.16793 40.232 9.19077C40.6799 9.23645 40.9918 8.93192 41.0878 8.45229C41.1678 8.04879 41.1758 7.63007 41.2158 7.21896C41.2637 6.73172 41.2637 6.23686 41.3517 5.75723C41.4797 5.04159 41.9676 4.40209 42.8634 4.18892C43.3993 4.06711 43.9432 4.05188 44.4791 4.10517C45.2949 4.19653 46.1508 4.72184 46.4147 5.62019C46.6147 6.29777 46.5347 6.96011 46.3027 7.61484C46.0308 8.37616 45.5349 8.96237 44.847 9.41155C44.783 9.44962 44.743 9.53336 44.6951 9.59426C44.783 9.63233 44.871 9.70085 44.959 9.70085C45.7828 9.68562 46.5667 9.51052 47.2785 9.09941C47.4385 9.00805 47.6145 8.93953 47.7824 8.85579C47.9424 8.78727 48.0304 8.87102 47.9904 9.00044C47.9184 9.21361 47.8304 9.442 47.6865 9.61711C47.0786 10.3556 46.2388 10.7058 45.2789 10.7667C44.871 10.7895 44.4551 10.7439 44.0392 10.721C43.7273 10.7058 43.4153 10.6753 43.1034 10.6601C42.9434 10.6525 42.8554 10.7134 42.8154 10.8657C42.5675 11.8402 42.4395 12.8299 42.3115 13.8196C42.2316 14.4439 42.1116 15.0681 41.9516 15.6772C41.8636 16.0122 41.5917 16.2406 41.2158 16.2939C40.9918 16.3319 40.8238 16.2329 40.7519 16.035C40.6879 15.8675 40.6319 15.6924 40.6159 15.5097C40.5439 14.6418 40.5759 13.7663 40.6959 12.906C40.7598 12.4644 40.7998 12.0229 40.8478 11.5813C40.8878 11.2768 40.9358 10.9646 40.9678 10.6601C40.9918 10.4089 40.9358 10.3556 40.6799 10.3023C40.16 10.2033 39.6481 10.1043 39.1282 9.99777C38.7762 9.92163 38.5043 10.0434 38.2643 10.2718C37.9524 10.5764 37.6005 10.8428 37.1846 11.0179C36.6887 11.2235 36.1528 11.1854 35.6409 11.1017C34.897 10.9875 34.3051 10.622 33.8892 10.0206C33.7612 9.83789 33.6653 9.62472 33.5613 9.42678C33.5053 9.31258 33.4493 9.2669 33.3133 9.33542C32.8174 9.57143 32.3295 9.82266 31.8176 10.0206C31.2497 10.249 30.6499 10.3251 30.05 10.1653C29.4661 10.013 29.0102 9.64756 28.6423 9.19838C28.5223 9.06896 28.4183 8.94715 28.2663 8.75682ZM45.167 6.52616C45.159 6.45003 45.159 6.3739 45.151 6.29777C45.079 5.8562 44.6151 5.65826 44.2392 5.92472C44.0712 6.04653 43.9192 6.19879 43.7992 6.3739C43.4153 6.93727 43.2393 7.57678 43.0634 8.2239C43.0234 8.38377 42.9914 8.55126 42.9914 8.71875C42.9994 9.02328 43.1914 9.11464 43.4553 8.94715C44.0152 8.60455 44.4311 8.12493 44.783 7.592C44.999 7.26464 45.175 6.92204 45.167 6.52616ZM23.1154 6.8383C23.1234 6.53377 23.0434 6.25209 22.8114 6.0313C22.6835 5.90949 22.5155 5.8562 22.3315 5.90949C22.0996 5.97801 21.9796 6.13789 21.9636 6.40435C21.9316 6.92204 22.1636 7.37122 22.4035 7.80517C22.5235 8.03357 22.6435 8.02595 22.8034 7.81279C23.0194 7.52348 23.1074 7.18851 23.1154 6.8383ZM17.5645 6.73933C17.5085 6.549 17.4685 6.35867 17.3805 6.17595C17.2685 5.95517 16.9886 5.84859 16.7487 5.90949C16.4847 5.97801 16.3807 6.09221 16.4127 6.39674C16.4367 6.6632 16.5007 6.92966 16.5727 7.1885C16.6287 7.37883 16.7087 7.56916 16.8126 7.73665C16.9486 7.97266 17.0846 7.97266 17.2206 7.74427C17.3965 7.44735 17.5405 7.11999 17.5645 6.73933Z" fill="#F64060"/>
</svg>
